<?xml version="1.0" encoding="UTF-8"?>
<svg width="72px" height="72px" viewBox="0 0 72 72" version="1.1" xmlns="http://www.w3.org/2000/svg" xmlns:xlink="http://www.w3.org/1999/xlink">
    <title>admin/login_icon</title>
    <g id="admin/login_icon" stroke="none" stroke-width="1" fill="none" fill-rule="evenodd">
        <path d="M68,14 C70.209139,14 72,15.790861 72,18 L72,53.875 C72,56.084139 70.209139,57.875 68,57.875 L4,57.875 C1.790861,57.875 2.705415e-16,56.084139 0,53.875 L0,18 C-2.705415e-16,15.790861 1.790861,14 4,14 L68,14 Z M22.1236217,23.5625 L19.5473284,23.5625 C13.9339597,23.6694071 9.4667465,28.3517185 9.56419195,34.0263287 L9.56419195,36.7701772 C9.51498911,39.4917485 10.5406532,42.1209496 12.4142358,44.076018 C14.2878184,46.0310864 16.8548514,47.1508359 19.5473284,47.1875 L22.1236217,47.1875 C24.8080623,47.1386095 27.3632895,46.0134956 29.2269575,44.0597696 C31.0906256,42.1060436 32.1100046,39.4838158 32.060753,36.7701772 L32.060753,34.0263287 C32.163502,28.3674769 27.7210831,23.6895967 22.1236217,23.5625 Z M60.8207623,41 L40.4694576,41 C39.8482047,41.003547 39.2565363,41.2655734 38.8367335,41.7230687 C38.4169308,42.180564 38.2069765,42.7921349 38.2573593,43.4107143 C38.3146896,44.5711542 39.2662662,45.4865441 40.4292376,45.5 L60.7805424,45.5 C61.4017953,45.496453 61.9934637,45.2344266 62.4132665,44.7769313 C62.8330693,44.319436 63.0430235,43.7078651 62.9926407,43.0892857 C62.9353104,41.9288457 61.9837338,41.0134559 60.8207623,41 Z M60.8271283,26.9375901 L40.5178278,26.9375901 C39.7148128,26.930413 38.9689713,27.3526201 38.5612546,28.0451701 C38.1535379,28.73772 38.1458878,29.595398 38.5411861,30.295125 C38.9364844,30.994852 39.6746758,31.4303229 40.4776908,31.4375 L60.7869913,31.4375 C61.4046096,31.4268781 61.9907476,31.1627348 62.4081491,30.7069247 C62.8255506,30.2511147 63.0375575,29.6436692 62.994524,29.026834 C62.937312,27.8664173 61.9876994,26.9510457 60.8271283,26.9375901 Z" id="Combined-Shape" fill="#03A84E" fill-rule="nonzero"></path>
        <path d="M25.6032583,30.2234779 C24.6852325,29.2249942 23.426551,28.6499863 22.1042202,28.625 L19.5207798,28.625 C16.7778254,28.7026534 14.6001206,31.0712173 14.62584,33.9489436 L14.62584,36.8010564 C14.6015791,38.1879059 15.1037159,39.5280384 16.0217417,40.5265221 C16.9397675,41.5250058 18.198449,42.1000137 19.5207798,42.125 L22.1042202,42.125 C23.426551,42.1000137 24.6852325,41.5250058 25.6032583,40.5265221 C26.5212841,39.5280384 27.0234209,38.1879059 26.99916,36.8010564 L26.99916,33.9489436 C27.0234209,32.5620941 26.5212841,31.2219616 25.6032583,30.2234779 Z" id="Path" fill="#03A84E" fill-rule="nonzero" opacity="0"></path>
        <path d="M29.2993633,31.5125 C28.846398,30.4337054 28.1941279,29.4654018 27.3646981,28.6337054 C26.5352682,27.8040179 25.566929,27.1511161 24.4858518,26.6991071 C23.3806164,26.2350446 22.2089461,26 20.9990254,26 L20.9587618,26 C19.7407883,26.0060268 18.5630785,26.2470982 17.4538167,26.7212054 C16.3828054,27.1792411 15.4225189,27.8301339 14.6011418,28.6598214 C13.7797647,29.4895089 13.1355473,30.4537946 12.6886215,31.5285714 C12.2276035,32.6415179 11.9940747,33.8247768 12,35.0421875 C12.0061538,36.4363839 12.3403415,37.8205357 12.9644271,39.0580357 L12.9644271,42.1116071 C12.9644271,42.621875 13.379142,43.0357143 13.8884763,43.0357143 L16.9444824,43.0357143 C18.1825876,43.6604911 19.5656417,43.9939732 20.9607749,44 L21.0030517,44 C22.2069329,44 23.3725637,43.7669643 24.4717595,43.3109375 C25.5467972,42.8629464 26.5131232,42.2200893 27.3405399,41.3984375 C28.1699697,40.5767857 28.8222398,39.6165179 29.2792315,38.5457589 C29.7523286,37.4368304 29.9939101,36.2575893 30,35.0401786 C30.003976,33.8167411 29.7664209,32.6294643 29.2993633,31.5125 Z M16,36 C15.4488518,36 15,35.5520833 15,35 C15,34.4479167 15.4488518,34 16,34 C16.5511482,34 17,34.4479167 17,35 C17,35.5520833 16.5532359,36 16,36 Z M21,36 C20.4488518,36 20,35.5520833 20,35 C20,34.4479167 20.4488518,34 21,34 C21.5511482,34 22,34.4479167 22,35 C22,35.5520833 21.5511482,36 21,36 Z M25,36 C24.4488518,36 24,35.5520833 24,35 C24,34.4479167 24.4488518,34 25,34 C25.5511482,34 26,34.4479167 26,35 C26,35.5520833 25.5511482,36 25,36 Z" id="Shape" fill="#03A84E" fill-rule="nonzero"></path>
    </g>
</svg>